<svg xmlns="http://www.w3.org/2000/svg" fill="none" viewBox="220 210 568 701"><defs><filter id="a" x="-20%" y="-20%" width="140%" height="140%" filterUnits="objectBoundingBox" primitiveUnits="userSpaceOnUse" color-interpolation-filters="linearRGB"><feMorphology operator="dilate" radius="20 20" in="SourceAlpha" result="morphology"/><feFlood flood-color="#fff" flood-opacity="1" result="flood"/><feComposite in="flood" in2="morphology" operator="in" result="composite"/><feMerge result="merge"><feMergeNode in="composite"/><feMergeNode in="SourceGraphic"/></feMerge></filter></defs><g filter="url(#a)"><path d="M532 379c132.548 0 240 107.452 240 240s-47.452 280-180 280c-99.44 0-218.524-82.99-271.81-180.415A80.647 80.647 0 0 1 312 719c-44.183 0-80-35.817-80-80 0-39.865 29.159-72.92 67.312-79C325.6 455.98 419.81 379 532 379ZM295.859 624.545l8.282 30.91" stroke="#000" stroke-width="24" fill-rule="evenodd" stroke-linecap="round" stroke-linejoin="round" fill="#fff"/><path fill-rule="evenodd" clip-rule="evenodd" d="M644 560s21.892 53.522 29 63c3 4 20.906 18.256 19.774 30.58C690.065 683.076 644 684.359 644 684.359s56 5.13 56-30.779c0-16.358-13-21.58-26-33.58-7.041-6.5-30-60-30-60Z" fill="#000" stroke="#000" stroke-width="6" stroke-linecap="round" stroke-linejoin="round"/><path d="M549 759c27.33 6.667 50.664 10 70 10s36.003-3.333 50-10" stroke="#000" stroke-width="16" stroke-linecap="round" stroke-linejoin="round"/><path d="M570 507c5.855 0 11.122 4.025 14.78 10.44L578 531h11.37c.411 2.557.63 5.238.63 8 0 17.673-8.954 32-20 32s-20-14.327-20-32c0-17.673 8.954-32 20-32Zm138 0c5.855 0 11.122 4.025 14.78 10.44L716 531h11.37c.411 2.557.63 5.238.63 8 0 17.673-8.954 32-20 32s-20-14.327-20-32c0-17.673 8.954-32 20-32Z" fill="#000" fill-rule="evenodd"/><path d="M757 487.2c0 7.2-21.333 7.2-40 7.2s-56 3.6-56 0 33.986-14.4 56-14.4h3.27c20.498.018 36.73.36 36.73 7.2ZM561 480c22.014 0 56 10.8 56 14.4 0 3.6-37.333 0-56 0s-40 0-40-7.2c0-6.84 16.232-7.182 36.73-7.2Z" stroke="#000" stroke-width="16" fill="#000" fill-rule="evenodd" stroke-linecap="round" stroke-linejoin="round"/><g fill-rule="evenodd"/><g fill="#000"><path fill-rule="evenodd" clip-rule="evenodd" d="m470 216 2.761 1.998c44.68 32.403 68.924 53.173 72.733 62.309l.122.31.039-.374c.918-9.131 1.367-16.545 1.345-22.243l-.01-.94c-.088-5.421-.751-14.107-1.99-26.06l1.194.952C563.921 246.181 573.523 258.197 575 268c3.538 23.485-3.679 44.617-9.814 52.757L565 321c-1.638 2.111 18-17 23-40 3.333-15.333 3.333-28 0-38 30.892 9.971 47.892 23.971 51 42 3.265 18.939 3.332 37.238.2 54.897l-.198 1.091.141-.685C643.934 317.434 657.22 306 679 306c22 0 44.667 9 68 27l-1.456.641c-15.369 6.8-25.55 12.253-30.544 16.359-5.15 4.234-9.483 10.901-13 20l2.929-.316c12.89-1.427 21.822-2.958 26.799-4.593L732 365c15.61-5.296 34.035 4.638 33 5-20 7-27 31-20 40 4.667 6 17 10.333 37 13-30.875 26.791-53.209 35.458-67 26-20.687-14.187-20.865-31.135-41-33-24.74-2.291-14.446 33-58 33-37.604 0-72.505-16.547-109-24-39.371-8.04-78.946-7.477-88.456-8.91L418 416c-7.607-1.397-24.508 16.444-38.704 29.522l.772 3.185.964 4.024c7.555 31.751 11.333 53.087 11.333 64.008 0 11.494-8.441 55.986-25.321 133.475L366 655l-37.883-90.175h-40.971c-15.035-55.849-18.876-94.48-11.525-115.894C264.765 438.546 255.225 418.901 247 390c16.285 8.391 33.426 11.82 51.421 10.286-8.85-11.474-12.14-30.357-9.871-56.647a119.308 119.308 0 0 0 23.512 19.406C326.325 325.452 360.22 304.953 375 285c13.333-18 15-36 5-54 56.667 8.667 90 18.333 100 29 1.333-13.333-2-28-10-44Zm75.616 64.617-.046.461-.239 2.272-.126 1.162c.887-.801 1.056-2.01.508-3.627l-.097-.268Z"/><path d="m470 216 3.518-4.86a6 6 0 0 0-8.885 7.543L470 216Zm2.761 1.998 3.523-4.857-.005-.003-3.518 4.86Zm72.733 62.309 5.585-2.194-.047-.115-5.538 2.309Zm.122.31-5.585 2.194a6 6 0 0 0 11.553-1.573l-5.968-.621Zm.039-.374 5.968.621.002-.02-5.97-.601ZM547 258l6-.023v-.039l-6 .062Zm-.01-.94 6-.062v-.036l-6 .098ZM545 231l3.74-4.691a5.998 5.998 0 0 0-9.708 5.309L545 231Zm1.194.952 3.756-4.679a.101.101 0 0 1-.016-.013l-3.74 4.692ZM575 268l5.933-.894L575 268Zm-9.814 52.757 4.766 3.645.025-.033-4.791-3.612ZM565 321l4.74 3.679.026-.034L565 321Zm23-40 5.863 1.275L588 281Zm0-38 1.843-5.71a5.999 5.999 0 0 0-7.535 7.607L588 243Zm51 42-5.913 1.019L639 285Zm.2 54.897 5.904 1.071a.185.185 0 0 1 .004-.023l-5.908-1.048Zm-.198 1.091-5.904-1.071a6 6 0 0 0 11.781 2.278l-5.877-1.207Zm.141-.685-5.873-1.23-.005.023 5.878 1.207ZM747 333l2.419 5.491a6.002 6.002 0 0 0 1.246-10.242L747 333Zm-1.456.641-2.419-5.49-.009.003 2.428 5.487ZM715 350l-3.811-4.635L715 350Zm-13 20-5.596-2.163a5.998 5.998 0 0 0 6.239 8.128L702 370Zm2.929-.316.643 5.966.018-.002-.661-5.964Zm26.799-4.593 1.872 5.7.027-.009-1.899-5.691ZM732 365l1.9 5.691a.942.942 0 0 1 .028-.009L732 365Zm33 5-1.982-5.663L765 370Zm-20 40 4.736-3.684L745 410Zm37 13 3.932 4.532a6 6 0 0 0-3.139-10.479L782 423Zm-67 26-3.393 4.948L715 449Zm-41-33 .553-5.974L674 416Zm-167 9-1.2 5.879L507 425Zm-88.456-8.91-.982 5.919.088.014.894-5.933ZM418 416l-1.084 5.901.102.018L418 416Zm-38.704 29.522-4.066-4.412a6 6 0 0 0-1.765 5.826l5.831-1.414Zm.772 3.185 5.835-1.398-.004-.016-5.831 1.414Zm.964 4.024 5.837-1.389-.002-.01-5.835 1.399Zm11.333 64.008h6-6Zm-25.321 133.475 5.862 1.279.001-.001-5.863-1.278ZM366 655l-5.532 2.324a6.001 6.001 0 0 0 11.394-1.045L366 655Zm-37.883-90.175 5.531-2.324a6 6 0 0 0-5.531-3.676v6Zm-40.971 0-5.794 1.56a6 6 0 0 0 5.794 4.44v-6Zm-11.525-115.894 5.675 1.948a6 6 0 0 0-1.527-6.284l-4.148 4.336ZM247 390l2.748-5.334a6 6 0 0 0-8.519 6.976L247 390Zm51.421 10.286.51 5.978a6 6 0 0 0 4.241-9.643l-4.751 3.665Zm-9.871-56.647 4.377-4.104a6 6 0 0 0-10.355 3.588l5.978.516Zm23.512 19.406-3.199 5.076a6 6 0 0 0 8.808-2.947l-5.609-2.129ZM375 285l4.821 3.571L375 285Zm5-54 .907-5.931a6.002 6.002 0 0 0-6.152 8.845L380 231Zm100 29-4.377 4.104a6 6 0 0 0 10.347-3.507L480 260Zm65.616 20.617 5.64-2.047a6 6 0 0 0-11.61 1.452l5.97.595Zm-.046.461 5.967.627.004-.032-5.971-.595Zm-.239 2.272 5.966.642.001-.015-5.967-.627Zm-.126 1.162-5.964-.656a6 6 0 0 0 9.986 5.108l-4.022-4.452Zm.508-3.627 5.683-1.925a5.914 5.914 0 0 0-.043-.122l-5.64 2.047Zm-79.231-60.025 2.761 1.999 7.036-9.721-2.761-1.998-7.036 9.72Zm2.757 1.996c22.288 16.163 39.369 29.347 51.311 39.578 5.976 5.119 10.58 9.427 13.88 12.945 3.427 3.653 5.014 6.007 5.526 7.237l11.076-4.618c-1.392-3.338-4.264-7.006-7.85-10.829-3.714-3.96-8.678-8.582-14.824-13.848-12.303-10.539-29.683-23.941-52.074-40.18l-7.045 9.715Zm70.671 59.645.121.31 11.17-4.388-.122-.31-11.169 4.388Zm11.674-1.263.039-.374-11.936-1.242-.039.374 11.936 1.242Zm.041-.394c.928-9.23 1.398-16.875 1.375-22.867l-12 .046c.021 5.404-.406 12.587-1.315 21.62l11.94 1.201ZM553 257.938l-.01-.94-11.999.123.009.941 12-.124Zm-.01-.976c-.093-5.701-.782-14.611-2.022-26.58l-11.936 1.236c1.237 11.936 1.875 20.4 1.959 25.539l11.999-.195Zm-11.73-21.271 1.193.952 7.481-9.383-1.194-.951-7.48 9.382Zm1.178.94c8.667 6.956 15.137 13.208 19.566 18.75 4.474 5.599 6.546 10.078 7.063 13.513l11.866-1.788c-.959-6.368-4.427-12.799-9.555-19.216-5.173-6.474-12.368-13.345-21.428-20.617l-7.512 9.358Zm26.629 32.263c1.642 10.901.789 21.29-1.193 29.892-2.009 8.712-5.074 15.169-7.48 18.36l9.583 7.223c3.73-4.949 7.34-13.128 9.59-22.888 2.275-9.871 3.262-21.791 1.366-34.375l-11.866 1.788Zm-8.648 48.219-.185.242 9.532 7.29.186-.243-9.533-7.289Zm-.159.208a8.002 8.002 0 0 0-.291.401 6.29 6.29 0 0 0-.576 1.05 6.057 6.057 0 0 0-.477 1.992c-.066 1.023.115 3.934 2.995 5.594 2.193 1.263 4.257.678 4.58.591a6.097 6.097 0 0 0 1.285-.514c.646-.347 1.127-.77 1.162-.799.173-.146.338-.296.478-.427.549-.515 1.318-1.305 2.219-2.294 1.83-2.009 4.434-5.095 7.242-8.988 5.558-7.706 12.238-19.009 14.986-31.652l-11.726-2.55c-2.252 10.357-7.891 20.109-12.993 27.182-2.521 3.495-4.833 6.229-6.38 7.928-.789.865-1.323 1.402-1.554 1.618-.055.051-.053.047-.006.008a5.407 5.407 0 0 1 .887-.594c.168-.09.621-.327 1.251-.498.313-.085 2.371-.67 4.559.591 2.876 1.657 3.055 4.563 2.99 5.579a5.97 5.97 0 0 1-.469 1.962c-.226.527-.478.891-.514.944a4.485 4.485 0 0 1-.168.234l-9.48-7.358Zm33.603-35.046c3.458-15.908 3.631-29.768-.171-41.172l-11.384 3.794c2.865 8.596 3.037 20.069-.171 34.828l11.726 2.55Zm-7.706-33.565c30.454 9.83 44.429 22.8 46.93 37.309l11.826-2.038c-3.716-21.549-23.741-36.579-55.07-46.691l-3.686 11.42Zm46.93 37.309c3.156 18.304 3.207 35.902.205 52.83l11.816 2.096c3.261-18.39 3.18-37.391-.195-56.964l-11.826 2.038Zm.209 52.807-.198 1.091 11.808 2.142.198-1.091-11.808-2.142Zm11.583 3.369.141-.684-11.755-2.415-.14.685 11.754 2.414Zm.136-.661c2.215-10.572 6.244-17.801 11.6-22.41C661.923 314.554 669.186 312 679 312v-12c-11.966 0-22.236 3.163-30.213 10.028-7.93 6.825-12.94 16.748-15.517 29.045l11.745 2.461ZM679 312c20.287 0 41.697 8.287 64.335 25.751l7.33-9.502C726.636 309.713 702.713 300 679 300v12Zm65.581 15.509-1.456.642 4.838 10.981 1.456-.641-4.838-10.982Zm-1.465.645c-15.319 6.778-26.219 12.518-31.927 17.211l7.622 9.27c4.279-3.519 13.742-8.685 29.161-15.507l-4.856-10.974Zm-31.927 17.211c-6.233 5.126-11.057 12.825-14.785 22.472l11.192 4.326c3.306-8.552 7.149-14.185 11.215-17.528l-7.622-9.27Zm-8.546 30.6 2.929-.315-1.285-11.931-2.93.316 1.286 11.93Zm2.947-.317c12.874-1.426 22.375-3.005 28.01-4.857l-3.745-11.4c-4.317 1.418-12.682 2.901-25.586 4.33l1.321 11.927Zm28.037-4.866.273-.091-3.8-11.382-.272.091 3.799 11.382Zm.301-.1c6.138-2.083 13.253-1.252 19.14.458 2.874.835 5.241 1.817 6.756 2.564.786.387 1.208.644 1.322.722.149.101-.21-.113-.642-.594-.054-.061-1.076-1.114-1.378-2.884a5.957 5.957 0 0 1 .899-4.275 5.935 5.935 0 0 1 2.993-2.336l3.964 11.326a6.049 6.049 0 0 0 3.973-6.734c-.312-1.828-1.38-2.956-1.517-3.109-.595-.664-1.259-1.124-1.545-1.318-.757-.514-1.726-1.051-2.766-1.563-2.136-1.052-5.157-2.29-8.712-3.323-6.969-2.023-16.872-3.511-26.343-.298l3.856 11.364Zm29.09-6.345c-11.866 4.153-19.756 13.301-23.671 22.581-1.961 4.648-3.007 9.51-2.988 14.045.02 4.466 1.087 9.097 3.905 12.721l9.472-7.368c-.682-.876-1.365-2.62-1.377-5.404-.011-2.715.63-5.978 2.044-9.33 2.835-6.72 8.445-13.072 16.579-15.919l-3.964-11.326Zm-22.754 49.347c3.385 4.352 8.935 7.421 15.497 9.727 6.704 2.355 15.233 4.175 25.446 5.536l1.586-11.894c-9.787-1.305-17.424-2.986-23.054-4.964-5.771-2.027-8.721-4.125-10.003-5.773l-9.472 7.368Zm37.804 4.784c-15.231 13.216-27.921 21.564-38.145 25.532-10.177 3.949-16.903 3.224-21.53.052l-6.786 9.896c9.165 6.286 20.501 5.956 32.657 1.239 12.11-4.699 26.024-14.08 41.668-27.655l-7.864-9.064Zm-59.675 25.584c-9.454-6.484-13.998-13.352-19.471-19.989-2.683-3.256-5.703-6.559-9.648-9.138-4.046-2.644-8.783-4.35-14.721-4.899l-1.106 11.948c4.129.383 6.966 1.495 9.262 2.996 2.397 1.567 4.491 3.737 6.954 6.726 4.823 5.849 10.711 14.549 21.944 22.252l6.786-9.896Zm-43.84-34.026c-7.901-.732-13.586 1.631-18.025 5.781-2.05 1.915-3.727 4.108-5.182 6.185a164.355 164.355 0 0 0-2.135 3.15 169.812 169.812 0 0 1-2.075 3.063c-2.784 3.985-5.763 7.515-10.228 10.149C632.47 440.973 626.052 443 616 443v12c11.725 0 20.353-2.385 27.007-6.311 6.628-3.911 10.788-9.061 13.967-13.612.788-1.129 1.532-2.245 2.221-3.278.701-1.052 1.341-2.01 1.979-2.922 1.286-1.834 2.403-3.234 3.548-4.304 1.95-1.823 4.256-3.012 8.725-2.599l1.106-11.948ZM616 443c-17.957 0-35.441-3.951-53.289-8.98-17.596-4.959-35.981-11.115-54.511-14.899l-2.4 11.758c17.965 3.668 35.278 9.512 53.657 14.691C577.584 450.678 596.353 455 616 455v-12Zm-107.8-23.879c-20.068-4.098-40.11-5.989-56.236-7.041-8.064-.525-15.195-.843-20.833-1.117-5.806-.281-9.69-.504-11.693-.806l-1.788 11.866c2.753.415 7.381.659 12.901.926 5.687.276 12.694.588 20.633 1.106 15.881 1.035 35.312 2.882 54.616 6.824l2.4-11.758Zm-88.674-8.95-.544-.09-1.964 11.838.544.09 1.964-11.838Zm-.442-.072c-4.204-.772-8.364 1.148-11.371 2.905-3.335 1.948-6.921 4.725-10.485 7.761-7.048 6.003-15.174 14.058-21.998 20.345l8.131 8.825c7.372-6.792 14.794-14.197 21.648-20.035 3.387-2.884 6.34-5.122 8.757-6.535 2.746-1.604 3.55-1.39 3.15-1.464l2.168-11.802Zm-45.619 36.837.772 3.185 11.662-2.828-.772-3.185-11.662 2.828Zm.768 3.17.964 4.023 11.67-2.797-.964-4.023-11.67 2.797Zm.962 4.013c7.583 31.868 11.17 52.52 11.17 62.62h12c0-11.742-3.969-33.763-11.496-65.397l-11.674 2.777Zm11.17 62.62c0 5.056-1.967 18.422-6.225 40.871-4.206 22.168-10.523 52.602-18.958 91.327l11.725 2.555c8.444-38.765 14.787-69.322 19.022-91.646 4.182-22.042 6.436-36.669 6.436-43.107h-12Zm-25.183 132.197-1.044 4.785 11.724 2.558 1.044-4.786-11.724-2.557Zm10.35 3.74-37.884-90.175-11.063 4.648 37.883 90.175 11.064-4.648Zm-43.415-93.851h-40.971v12h40.971v-12Zm-35.177 4.44c-7.469-27.745-12.104-51.021-13.981-69.894-1.888-18.986-.926-32.987 2.337-42.492l-11.35-3.896c-4.088 11.909-4.881 27.93-2.928 47.576 1.965 19.758 6.769 43.722 14.334 71.826l11.588-3.12Zm-13.171-118.67c-9.635-9.217-18.826-27.524-26.998-56.237l-11.542 3.284c8.279 29.089 18.168 50.071 30.245 61.624l8.295-8.671Zm-35.517-49.261c17.274 8.9 35.542 12.561 54.679 10.93l-1.019-11.957c-16.854 1.437-32.867-1.759-48.164-9.641l-5.496 10.668Zm58.92 1.287c-7.427-9.628-10.879-26.57-8.644-52.466l-11.956-1.032c-2.303 26.685.824 47.508 11.099 60.827l9.501-7.329Zm-18.998-48.878a125.287 125.287 0 0 0 24.689 20.378l6.398-10.152a113.267 113.267 0 0 1-22.334-18.434l-8.753 8.208Zm33.497 17.431c6.7-17.658 18.072-31.478 29.946-43.561 5.993-6.099 11.873-11.525 17.497-16.981 5.502-5.337 10.699-10.649 14.707-16.061l-9.642-7.142c-3.382 4.564-7.964 9.297-13.42 14.59-5.334 5.175-11.591 10.964-17.701 17.183-12.335 12.553-25.042 27.78-32.606 47.715l11.219 4.257Zm62.15-76.603c7.165-9.671 11.447-19.692 12.403-30.018.96-10.365-1.477-20.563-6.979-30.467l-10.49 5.828c4.498 8.096 6.228 15.898 5.521 23.533-.711 7.674-3.928 15.653-10.097 23.982l9.642 7.142Zm-.728-51.64c28.218 4.316 50.428 8.852 66.736 13.582 8.154 2.364 14.709 4.742 19.747 7.106 5.111 2.398 8.293 4.614 10.047 6.485l8.754-8.208c-3.246-3.463-7.981-6.455-13.703-9.14-5.795-2.72-12.99-5.3-21.503-7.769-17.026-4.937-39.815-9.567-68.264-13.918l-1.814 11.862Zm106.877 23.666c1.478-14.781-2.262-30.597-10.603-47.28l-10.734 5.366c7.659 15.317 10.585 28.834 9.397 40.72l11.94 1.194Zm53.676 19.425-.046.461 11.941 1.19.045-.461-11.94-1.19Zm-.043.429-.239 2.272 11.934 1.254.239-2.272-11.934-1.254Zm-.237 2.258-.125 1.147 11.928 1.311.128-1.175-11.931-1.283Zm9.861 6.255c3.41-3.08 3.099-7.258 2.169-10.004l-11.366 3.85c.087.254-.061-.022.025-.638.046-.33.156-.723.369-1.128.214-.407.484-.737.759-.985l8.044 8.905Zm2.126-10.126-.097-.268-11.28 4.094.097.267 11.28-4.093Z"/></g><path d="M281 720c7.333 16.667 14.667 22.667 22 18 11-7-2.314-34.537-2.314-40.692 0-6.155 8.252-9.537 12.252-6.165 4 3.371 7.81 13.25 10.062 25.857 5 28-8 40-23 41-15.994 1.066-28.327-14.267-37-46l18 8Z" stroke="#000" stroke-width="8" fill="#FFF" fill-rule="evenodd" stroke-linecap="round" stroke-linejoin="round"/><g fill-rule="evenodd"/><g stroke="#000" fill-rule="evenodd" stroke-linecap="round" stroke-linejoin="round"><path d="M387 654c26 64 49 96 69 96 30 0 24-49 76-49s43 25 95 25c24.7 0 67-18 91-25 16-4.667 34-6 54-4-13.333 132.667-72.667 199-178 199-159.333 0-235.333-80.667-228-242h21Zm302 85c-15.627-15.055-27.835 5.09-75 5.352-47.165.262-82.427-22.053-92 2.648-9.573 24.7 24.981 47.32 98.653 47.352 73.673.032 83.974-40.297 68.347-55.352Z" stroke-width="12" fill="#000"/><path d="M549 759c27.33 6.667 50.664 10 70 10s36.003-3.333 50-10" stroke-width="16"/></g></g></svg>